<svg width="197" height="67" viewBox="0 0 197 67" fill="none" xmlns="http://www.w3.org/2000/svg">
<mask id="path-1-inside-1_1568_4952" fill="white">
<path d="M31.8962 52.5928C33.2459 52.4128 34.519 53.3577 34.4316 54.7166C34.3714 55.6526 34.1978 56.5823 33.9123 57.4876C33.3779 59.1816 32.4637 60.7514 31.2306 62.0927C29.9974 63.434 28.4736 64.5158 26.7604 65.2664C25.0473 66.0169 23.1842 66.4189 21.2951 66.4455C19.406 66.4721 17.5342 66.1228 15.8043 65.4208C14.0745 64.7188 12.5262 63.6802 11.2625 62.3741C9.99883 61.0681 9.04877 59.5245 8.47553 57.8461C8.16762 56.9446 7.97223 56.0153 7.89124 55.0765C7.7747 53.7255 9.01726 52.7534 10.3658 52.8948V52.8948C11.7526 53.0403 12.7079 54.324 13.0195 55.6831C13.076 55.9293 13.1454 56.1733 13.2276 56.414C13.586 57.4632 14.1799 58.4282 14.9698 59.2446C15.7598 60.0611 16.7276 60.7103 17.809 61.1492C18.8904 61.588 20.0605 61.8064 21.2414 61.7897C22.4223 61.7731 23.587 61.5218 24.6579 61.0526C25.7288 60.5834 26.6814 59.9071 27.4523 59.0687C28.2232 58.2302 28.7947 57.2489 29.1287 56.1899C29.2065 55.9433 29.271 55.6938 29.3221 55.4423C29.5992 54.0797 30.5179 52.7767 31.8962 52.5928V52.5928Z"/>
</mask>
<path d="M31.8962 52.5928C33.2459 52.4128 34.519 53.3577 34.4316 54.7166C34.3714 55.6526 34.1978 56.5823 33.9123 57.4876C33.3779 59.1816 32.4637 60.7514 31.2306 62.0927C29.9974 63.434 28.4736 64.5158 26.7604 65.2664C25.0473 66.0169 23.1842 66.4189 21.2951 66.4455C19.406 66.4721 17.5342 66.1228 15.8043 65.4208C14.0745 64.7188 12.5262 63.6802 11.2625 62.3741C9.99883 61.0681 9.04877 59.5245 8.47553 57.8461C8.16762 56.9446 7.97223 56.0153 7.89124 55.0765C7.7747 53.7255 9.01726 52.7534 10.3658 52.8948V52.8948C11.7526 53.0403 12.7079 54.324 13.0195 55.6831C13.076 55.9293 13.1454 56.1733 13.2276 56.414C13.586 57.4632 14.1799 58.4282 14.9698 59.2446C15.7598 60.0611 16.7276 60.7103 17.809 61.1492C18.8904 61.588 20.0605 61.8064 21.2414 61.7897C22.4223 61.7731 23.587 61.5218 24.6579 61.0526C25.7288 60.5834 26.6814 59.9071 27.4523 59.0687C28.2232 58.2302 28.7947 57.2489 29.1287 56.1899C29.2065 55.9433 29.271 55.6938 29.3221 55.4423C29.5992 54.0797 30.5179 52.7767 31.8962 52.5928V52.5928Z" fill="white" stroke="white" stroke-width="0.167865" mask="url(#path-1-inside-1_1568_4952)"/>
<mask id="path-2-outside-2_1568_4952" maskUnits="userSpaceOnUse" x="42.7617" y="3.28662" width="153" height="30" fill="black">
<rect fill="white" x="42.7617" y="3.28662" width="153" height="30"/>
<path d="M45.9217 32.6066C45.0951 32.6066 44.4551 32.3933 44.0017 31.9666C43.5751 31.5133 43.3617 30.8733 43.3617 30.0466V14.9266C43.3617 14.1 43.5751 13.4733 44.0017 13.0466C44.4284 12.62 45.0284 12.4066 45.8017 12.4066C46.5751 12.4066 47.1751 12.62 47.6017 13.0466C48.0284 13.4733 48.2417 14.1 48.2417 14.9266V17.4466H47.8417C48.2151 15.8466 48.9484 14.6333 50.0417 13.8066C51.1351 12.98 52.5884 12.4866 54.4017 12.3266C54.9617 12.2733 55.4017 12.42 55.7217 12.7666C56.0684 13.0866 56.2684 13.5933 56.3217 14.2866C56.3751 14.9533 56.2151 15.5 55.8417 15.9266C55.4951 16.3266 54.9617 16.5666 54.2417 16.6466L53.3617 16.7266C51.7351 16.8866 50.5084 17.3933 49.6817 18.2466C48.8551 19.0733 48.4417 20.2466 48.4417 21.7666V30.0466C48.4417 30.8733 48.2284 31.5133 47.8017 31.9666C47.3751 32.3933 46.7484 32.6066 45.9217 32.6066ZM65.2705 32.6866C63.8571 32.6866 62.5905 32.42 61.4705 31.8866C60.3771 31.3266 59.5105 30.58 58.8705 29.6466C58.2571 28.7133 57.9505 27.66 57.9505 26.4866C57.9505 25.0466 58.3238 23.9133 59.0705 23.0866C59.8171 22.2333 61.0305 21.62 62.7105 21.2466C64.3905 20.8733 66.6438 20.6866 69.4705 20.6866H71.4705V23.5666H69.5105C67.8571 23.5666 66.5371 23.6466 65.5505 23.8066C64.5638 23.9666 63.8571 24.2466 63.4305 24.6466C63.0305 25.02 62.8305 25.5533 62.8305 26.2466C62.8305 27.1266 63.1371 27.8466 63.7505 28.4066C64.3638 28.9666 65.2171 29.2466 66.3105 29.2466C67.1905 29.2466 67.9638 29.0466 68.6305 28.6466C69.3238 28.22 69.8705 27.6466 70.2705 26.9266C70.6705 26.2066 70.8705 25.38 70.8705 24.4466V19.8466C70.8705 18.5133 70.5771 17.5533 69.9905 16.9666C69.4038 16.38 68.4171 16.0866 67.0305 16.0866C66.2571 16.0866 65.4171 16.18 64.5105 16.3666C63.6305 16.5533 62.6971 16.8733 61.7105 17.3266C61.2038 17.5666 60.7505 17.6333 60.3505 17.5266C59.9771 17.42 59.6838 17.2066 59.4705 16.8866C59.2571 16.54 59.1505 16.1666 59.1505 15.7666C59.1505 15.3666 59.2571 14.98 59.4705 14.6066C59.6838 14.2066 60.0438 13.9133 60.5505 13.7266C61.7771 13.22 62.9505 12.86 64.0705 12.6466C65.2171 12.4333 66.2571 12.3266 67.1905 12.3266C69.1105 12.3266 70.6838 12.62 71.9105 13.2066C73.1638 13.7933 74.0971 14.6866 74.7105 15.8866C75.3238 17.06 75.6305 18.58 75.6305 20.4466V30.0466C75.6305 30.8733 75.4305 31.5133 75.0305 31.9666C74.6305 32.3933 74.0571 32.6066 73.3105 32.6066C72.5638 32.6066 71.9771 32.3933 71.5505 31.9666C71.1505 31.5133 70.9505 30.8733 70.9505 30.0466V28.1266H71.2705C71.0838 29.06 70.7105 29.8733 70.1505 30.5666C69.6171 31.2333 68.9371 31.7533 68.1105 32.1266C67.2838 32.5 66.3371 32.6866 65.2705 32.6866ZM88.2255 32.6866C86.5188 32.6866 85.0121 32.2733 83.7055 31.4466C82.4255 30.62 81.4255 29.4466 80.7055 27.9266C79.9855 26.38 79.6255 24.5666 79.6255 22.4866C79.6255 20.38 79.9855 18.58 80.7055 17.0866C81.4255 15.5666 82.4255 14.3933 83.7055 13.5666C85.0121 12.74 86.5188 12.3266 88.2255 12.3266C89.8521 12.3266 91.2655 12.7266 92.4655 13.5266C93.6921 14.3266 94.5188 15.38 94.9455 16.6866H94.5055V6.28662C94.5055 5.45995 94.7188 4.83329 95.1455 4.40662C95.5721 3.97995 96.1855 3.76662 96.9855 3.76662C97.7855 3.76662 98.3988 3.97995 98.8255 4.40662C99.2788 4.83329 99.5055 5.45995 99.5055 6.28662V30.0466C99.5055 30.8733 99.2921 31.5133 98.8655 31.9666C98.4388 32.3933 97.8255 32.6066 97.0255 32.6066C96.2255 32.6066 95.6121 32.3933 95.1855 31.9666C94.7588 31.5133 94.5455 30.8733 94.5455 30.0466V26.9266L94.9855 28.1266C94.5855 29.5133 93.7721 30.62 92.5455 31.4466C91.3188 32.2733 89.8788 32.6866 88.2255 32.6866ZM89.6255 28.8866C90.6121 28.8866 91.4788 28.6466 92.2255 28.1666C92.9721 27.6866 93.5455 26.98 93.9455 26.0466C94.3721 25.0866 94.5855 23.9 94.5855 22.4866C94.5855 20.3533 94.1321 18.7666 93.2255 17.7266C92.3188 16.66 91.1188 16.1266 89.6255 16.1266C88.6388 16.1266 87.7721 16.3666 87.0255 16.8466C86.2788 17.3 85.6921 18.0066 85.2655 18.9666C84.8655 19.9 84.6655 21.0733 84.6655 22.4866C84.6655 24.5933 85.1188 26.1933 86.0255 27.2866C86.9321 28.3533 88.1321 28.8866 89.6255 28.8866ZM107.17 32.5666C106.37 32.5666 105.757 32.3266 105.33 31.8466C104.903 31.3666 104.69 30.7 104.69 29.8466V15.1666C104.69 14.2866 104.903 13.62 105.33 13.1666C105.757 12.6866 106.37 12.4466 107.17 12.4466C107.97 12.4466 108.583 12.6866 109.01 13.1666C109.463 13.62 109.69 14.2866 109.69 15.1666V29.8466C109.69 30.7 109.477 31.3666 109.05 31.8466C108.623 32.3266 107.997 32.5666 107.17 32.5666ZM107.17 8.72662C106.237 8.72662 105.503 8.49995 104.97 8.04662C104.463 7.56662 104.21 6.91329 104.21 6.08662C104.21 5.23329 104.463 4.57995 104.97 4.12662C105.503 3.67329 106.237 3.44662 107.17 3.44662C108.13 3.44662 108.863 3.67329 109.37 4.12662C109.877 4.57995 110.13 5.23329 110.13 6.08662C110.13 6.91329 109.877 7.56662 109.37 8.04662C108.863 8.49995 108.13 8.72662 107.17 8.72662ZM123.845 32.6866C122.112 32.6866 120.658 32.3933 119.485 31.8066C118.338 31.22 117.485 30.3666 116.925 29.2466C116.365 28.1 116.085 26.6866 116.085 25.0066V16.4866H114.005C113.365 16.4866 112.872 16.3266 112.525 16.0066C112.178 15.66 112.005 15.1933 112.005 14.6066C112.005 13.9933 112.178 13.5266 112.525 13.2066C112.872 12.8866 113.365 12.7266 114.005 12.7266H116.085V9.08662C116.085 8.25995 116.298 7.63329 116.725 7.20662C117.178 6.77995 117.805 6.56662 118.605 6.56662C119.405 6.56662 120.018 6.77995 120.445 7.20662C120.872 7.63329 121.085 8.25995 121.085 9.08662V12.7266H125.325C125.965 12.7266 126.458 12.8866 126.805 13.2066C127.152 13.5266 127.325 13.9933 127.325 14.6066C127.325 15.1933 127.152 15.66 126.805 16.0066C126.458 16.3266 125.965 16.4866 125.325 16.4866H121.085V24.7266C121.085 26.0066 121.365 26.9666 121.925 27.6066C122.485 28.2466 123.392 28.5666 124.645 28.5666C125.098 28.5666 125.498 28.5266 125.845 28.4466C126.192 28.3666 126.498 28.3133 126.765 28.2866C127.085 28.26 127.352 28.3666 127.565 28.6066C127.778 28.82 127.885 29.2733 127.885 29.9666C127.885 30.5 127.792 30.98 127.605 31.4066C127.445 31.8066 127.138 32.0866 126.685 32.2466C126.338 32.3533 125.885 32.4466 125.325 32.5266C124.765 32.6333 124.272 32.6866 123.845 32.6866ZM137.317 32.6866C135.69 32.6866 134.343 32.3933 133.277 31.8066C132.21 31.1933 131.41 30.2866 130.877 29.0866C130.37 27.8866 130.117 26.3933 130.117 24.6066V14.9266C130.117 14.0733 130.33 13.4466 130.757 13.0466C131.183 12.62 131.797 12.4066 132.597 12.4066C133.397 12.4066 134.01 12.62 134.437 13.0466C134.89 13.4466 135.117 14.0733 135.117 14.9266V24.6866C135.117 26.0733 135.397 27.1 135.957 27.7666C136.517 28.4333 137.41 28.7666 138.637 28.7666C139.97 28.7666 141.063 28.3133 141.917 27.4066C142.77 26.4733 143.197 25.2466 143.197 23.7266V14.9266C143.197 14.0733 143.41 13.4466 143.837 13.0466C144.263 12.62 144.877 12.4066 145.677 12.4066C146.477 12.4066 147.09 12.62 147.517 13.0466C147.97 13.4466 148.197 14.0733 148.197 14.9266V30.0466C148.197 31.7533 147.383 32.6066 145.757 32.6066C144.983 32.6066 144.383 32.3933 143.957 31.9666C143.53 31.5133 143.317 30.8733 143.317 30.0466V27.0066L143.877 28.2066C143.317 29.6466 142.463 30.7533 141.317 31.5266C140.197 32.3 138.863 32.6866 137.317 32.6866ZM160.921 32.6866C159.214 32.6866 157.707 32.2733 156.401 31.4466C155.121 30.62 154.121 29.4466 153.401 27.9266C152.681 26.38 152.321 24.5666 152.321 22.4866C152.321 20.38 152.681 18.58 153.401 17.0866C154.121 15.5666 155.121 14.3933 156.401 13.5666C157.707 12.74 159.214 12.3266 160.921 12.3266C162.547 12.3266 163.961 12.7266 165.161 13.5266C166.387 14.3266 167.214 15.38 167.641 16.6866H167.201V6.28662C167.201 5.45995 167.414 4.83329 167.841 4.40662C168.267 3.97995 168.881 3.76662 169.681 3.76662C170.481 3.76662 171.094 3.97995 171.521 4.40662C171.974 4.83329 172.201 5.45995 172.201 6.28662V30.0466C172.201 30.8733 171.987 31.5133 171.561 31.9666C171.134 32.3933 170.521 32.6066 169.721 32.6066C168.921 32.6066 168.307 32.3933 167.881 31.9666C167.454 31.5133 167.241 30.8733 167.241 30.0466V26.9266L167.681 28.1266C167.281 29.5133 166.467 30.62 165.241 31.4466C164.014 32.2733 162.574 32.6866 160.921 32.6866ZM162.321 28.8866C163.307 28.8866 164.174 28.6466 164.921 28.1666C165.667 27.6866 166.241 26.98 166.641 26.0466C167.067 25.0866 167.281 23.9 167.281 22.4866C167.281 20.3533 166.827 18.7666 165.921 17.7266C165.014 16.66 163.814 16.1266 162.321 16.1266C161.334 16.1266 160.467 16.3666 159.721 16.8466C158.974 17.3 158.387 18.0066 157.961 18.9666C157.561 19.9 157.361 21.0733 157.361 22.4866C157.361 24.5933 157.814 26.1933 158.721 27.2866C159.627 28.3533 160.827 28.8866 162.321 28.8866ZM187.025 32.6866C184.812 32.6866 182.905 32.2733 181.305 31.4466C179.705 30.62 178.465 29.4466 177.585 27.9266C176.732 26.4066 176.305 24.6066 176.305 22.5266C176.305 20.5 176.718 18.7266 177.545 17.2066C178.398 15.6866 179.558 14.5 181.025 13.6466C182.518 12.7666 184.212 12.3266 186.105 12.3266C187.492 12.3266 188.732 12.5533 189.825 13.0066C190.945 13.46 191.892 14.1133 192.665 14.9666C193.465 15.82 194.065 16.86 194.465 18.0866C194.892 19.2866 195.105 20.6466 195.105 22.1666C195.105 22.6466 194.932 23.02 194.585 23.2866C194.265 23.5266 193.798 23.6466 193.185 23.6466H180.345V20.7666H191.585L190.945 21.3666C190.945 20.14 190.758 19.1133 190.385 18.2866C190.038 17.46 189.518 16.8333 188.825 16.4066C188.158 15.9533 187.318 15.7266 186.305 15.7266C185.185 15.7266 184.225 15.9933 183.425 16.5266C182.652 17.0333 182.052 17.7666 181.625 18.7266C181.225 19.66 181.025 20.78 181.025 22.0866V22.3666C181.025 24.5533 181.532 26.1933 182.545 27.2866C183.585 28.3533 185.105 28.8866 187.105 28.8866C187.798 28.8866 188.572 28.8066 189.425 28.6466C190.305 28.46 191.132 28.1533 191.905 27.7266C192.465 27.4066 192.958 27.2733 193.385 27.3266C193.812 27.3533 194.145 27.5 194.385 27.7666C194.652 28.0333 194.812 28.3666 194.865 28.7666C194.918 29.14 194.838 29.5266 194.625 29.9266C194.438 30.3266 194.105 30.6733 193.625 30.9666C192.692 31.5533 191.612 31.9933 190.385 32.2866C189.185 32.5533 188.065 32.6866 187.025 32.6866Z"/>
</mask>
<path d="M45.9217 32.6066C45.0951 32.6066 44.4551 32.3933 44.0017 31.9666C43.5751 31.5133 43.3617 30.8733 43.3617 30.0466V14.9266C43.3617 14.1 43.5751 13.4733 44.0017 13.0466C44.4284 12.62 45.0284 12.4066 45.8017 12.4066C46.5751 12.4066 47.1751 12.62 47.6017 13.0466C48.0284 13.4733 48.2417 14.1 48.2417 14.9266V17.4466H47.8417C48.2151 15.8466 48.9484 14.6333 50.0417 13.8066C51.1351 12.98 52.5884 12.4866 54.4017 12.3266C54.9617 12.2733 55.4017 12.42 55.7217 12.7666C56.0684 13.0866 56.2684 13.5933 56.3217 14.2866C56.3751 14.9533 56.2151 15.5 55.8417 15.9266C55.4951 16.3266 54.9617 16.5666 54.2417 16.6466L53.3617 16.7266C51.7351 16.8866 50.5084 17.3933 49.6817 18.2466C48.8551 19.0733 48.4417 20.2466 48.4417 21.7666V30.0466C48.4417 30.8733 48.2284 31.5133 47.8017 31.9666C47.3751 32.3933 46.7484 32.6066 45.9217 32.6066ZM65.2705 32.6866C63.8571 32.6866 62.5905 32.42 61.4705 31.8866C60.3771 31.3266 59.5105 30.58 58.8705 29.6466C58.2571 28.7133 57.9505 27.66 57.9505 26.4866C57.9505 25.0466 58.3238 23.9133 59.0705 23.0866C59.8171 22.2333 61.0305 21.62 62.7105 21.2466C64.3905 20.8733 66.6438 20.6866 69.4705 20.6866H71.4705V23.5666H69.5105C67.8571 23.5666 66.5371 23.6466 65.5505 23.8066C64.5638 23.9666 63.8571 24.2466 63.4305 24.6466C63.0305 25.02 62.8305 25.5533 62.8305 26.2466C62.8305 27.1266 63.1371 27.8466 63.7505 28.4066C64.3638 28.9666 65.2171 29.2466 66.3105 29.2466C67.1905 29.2466 67.9638 29.0466 68.6305 28.6466C69.3238 28.22 69.8705 27.6466 70.2705 26.9266C70.6705 26.2066 70.8705 25.38 70.8705 24.4466V19.8466C70.8705 18.5133 70.5771 17.5533 69.9905 16.9666C69.4038 16.38 68.4171 16.0866 67.0305 16.0866C66.2571 16.0866 65.4171 16.18 64.5105 16.3666C63.6305 16.5533 62.6971 16.8733 61.7105 17.3266C61.2038 17.5666 60.7505 17.6333 60.3505 17.5266C59.9771 17.42 59.6838 17.2066 59.4705 16.8866C59.2571 16.54 59.1505 16.1666 59.1505 15.7666C59.1505 15.3666 59.2571 14.98 59.4705 14.6066C59.6838 14.2066 60.0438 13.9133 60.5505 13.7266C61.7771 13.22 62.9505 12.86 64.0705 12.6466C65.2171 12.4333 66.2571 12.3266 67.1905 12.3266C69.1105 12.3266 70.6838 12.62 71.9105 13.2066C73.1638 13.7933 74.0971 14.6866 74.7105 15.8866C75.3238 17.06 75.6305 18.58 75.6305 20.4466V30.0466C75.6305 30.8733 75.4305 31.5133 75.0305 31.9666C74.6305 32.3933 74.0571 32.6066 73.3105 32.6066C72.5638 32.6066 71.9771 32.3933 71.5505 31.9666C71.1505 31.5133 70.9505 30.8733 70.9505 30.0466V28.1266H71.2705C71.0838 29.06 70.7105 29.8733 70.1505 30.5666C69.6171 31.2333 68.9371 31.7533 68.1105 32.1266C67.2838 32.5 66.3371 32.6866 65.2705 32.6866ZM88.2255 32.6866C86.5188 32.6866 85.0121 32.2733 83.7055 31.4466C82.4255 30.62 81.4255 29.4466 80.7055 27.9266C79.9855 26.38 79.6255 24.5666 79.6255 22.4866C79.6255 20.38 79.9855 18.58 80.7055 17.0866C81.4255 15.5666 82.4255 14.3933 83.7055 13.5666C85.0121 12.74 86.5188 12.3266 88.2255 12.3266C89.8521 12.3266 91.2655 12.7266 92.4655 13.5266C93.6921 14.3266 94.5188 15.38 94.9455 16.6866H94.5055V6.28662C94.5055 5.45995 94.7188 4.83329 95.1455 4.40662C95.5721 3.97995 96.1855 3.76662 96.9855 3.76662C97.7855 3.76662 98.3988 3.97995 98.8255 4.40662C99.2788 4.83329 99.5055 5.45995 99.5055 6.28662V30.0466C99.5055 30.8733 99.2921 31.5133 98.8655 31.9666C98.4388 32.3933 97.8255 32.6066 97.0255 32.6066C96.2255 32.6066 95.6121 32.3933 95.1855 31.9666C94.7588 31.5133 94.5455 30.8733 94.5455 30.0466V26.9266L94.9855 28.1266C94.5855 29.5133 93.7721 30.62 92.5455 31.4466C91.3188 32.2733 89.8788 32.6866 88.2255 32.6866ZM89.6255 28.8866C90.6121 28.8866 91.4788 28.6466 92.2255 28.1666C92.9721 27.6866 93.5455 26.98 93.9455 26.0466C94.3721 25.0866 94.5855 23.9 94.5855 22.4866C94.5855 20.3533 94.1321 18.7666 93.2255 17.7266C92.3188 16.66 91.1188 16.1266 89.6255 16.1266C88.6388 16.1266 87.7721 16.3666 87.0255 16.8466C86.2788 17.3 85.6921 18.0066 85.2655 18.9666C84.8655 19.9 84.6655 21.0733 84.6655 22.4866C84.6655 24.5933 85.1188 26.1933 86.0255 27.2866C86.9321 28.3533 88.1321 28.8866 89.6255 28.8866ZM107.17 32.5666C106.37 32.5666 105.757 32.3266 105.33 31.8466C104.903 31.3666 104.69 30.7 104.69 29.8466V15.1666C104.69 14.2866 104.903 13.62 105.33 13.1666C105.757 12.6866 106.37 12.4466 107.17 12.4466C107.97 12.4466 108.583 12.6866 109.01 13.1666C109.463 13.62 109.69 14.2866 109.69 15.1666V29.8466C109.69 30.7 109.477 31.3666 109.05 31.8466C108.623 32.3266 107.997 32.5666 107.17 32.5666ZM107.17 8.72662C106.237 8.72662 105.503 8.49995 104.97 8.04662C104.463 7.56662 104.21 6.91329 104.21 6.08662C104.21 5.23329 104.463 4.57995 104.97 4.12662C105.503 3.67329 106.237 3.44662 107.17 3.44662C108.13 3.44662 108.863 3.67329 109.37 4.12662C109.877 4.57995 110.13 5.23329 110.13 6.08662C110.13 6.91329 109.877 7.56662 109.37 8.04662C108.863 8.49995 108.13 8.72662 107.17 8.72662ZM123.845 32.6866C122.112 32.6866 120.658 32.3933 119.485 31.8066C118.338 31.22 117.485 30.3666 116.925 29.2466C116.365 28.1 116.085 26.6866 116.085 25.0066V16.4866H114.005C113.365 16.4866 112.872 16.3266 112.525 16.0066C112.178 15.66 112.005 15.1933 112.005 14.6066C112.005 13.9933 112.178 13.5266 112.525 13.2066C112.872 12.8866 113.365 12.7266 114.005 12.7266H116.085V9.08662C116.085 8.25995 116.298 7.63329 116.725 7.20662C117.178 6.77995 117.805 6.56662 118.605 6.56662C119.405 6.56662 120.018 6.77995 120.445 7.20662C120.872 7.63329 121.085 8.25995 121.085 9.08662V12.7266H125.325C125.965 12.7266 126.458 12.8866 126.805 13.2066C127.152 13.5266 127.325 13.9933 127.325 14.6066C127.325 15.1933 127.152 15.66 126.805 16.0066C126.458 16.3266 125.965 16.4866 125.325 16.4866H121.085V24.7266C121.085 26.0066 121.365 26.9666 121.925 27.6066C122.485 28.2466 123.392 28.5666 124.645 28.5666C125.098 28.5666 125.498 28.5266 125.845 28.4466C126.192 28.3666 126.498 28.3133 126.765 28.2866C127.085 28.26 127.352 28.3666 127.565 28.6066C127.778 28.82 127.885 29.2733 127.885 29.9666C127.885 30.5 127.792 30.98 127.605 31.4066C127.445 31.8066 127.138 32.0866 126.685 32.2466C126.338 32.3533 125.885 32.4466 125.325 32.5266C124.765 32.6333 124.272 32.6866 123.845 32.6866ZM137.317 32.6866C135.69 32.6866 134.343 32.3933 133.277 31.8066C132.21 31.1933 131.41 30.2866 130.877 29.0866C130.37 27.8866 130.117 26.3933 130.117 24.6066V14.9266C130.117 14.0733 130.33 13.4466 130.757 13.0466C131.183 12.62 131.797 12.4066 132.597 12.4066C133.397 12.4066 134.01 12.62 134.437 13.0466C134.89 13.4466 135.117 14.0733 135.117 14.9266V24.6866C135.117 26.0733 135.397 27.1 135.957 27.7666C136.517 28.4333 137.41 28.7666 138.637 28.7666C139.97 28.7666 141.063 28.3133 141.917 27.4066C142.77 26.4733 143.197 25.2466 143.197 23.7266V14.9266C143.197 14.0733 143.41 13.4466 143.837 13.0466C144.263 12.62 144.877 12.4066 145.677 12.4066C146.477 12.4066 147.09 12.62 147.517 13.0466C147.97 13.4466 148.197 14.0733 148.197 14.9266V30.0466C148.197 31.7533 147.383 32.6066 145.757 32.6066C144.983 32.6066 144.383 32.3933 143.957 31.9666C143.53 31.5133 143.317 30.8733 143.317 30.0466V27.0066L143.877 28.2066C143.317 29.6466 142.463 30.7533 141.317 31.5266C140.197 32.3 138.863 32.6866 137.317 32.6866ZM160.921 32.6866C159.214 32.6866 157.707 32.2733 156.401 31.4466C155.121 30.62 154.121 29.4466 153.401 27.9266C152.681 26.38 152.321 24.5666 152.321 22.4866C152.321 20.38 152.681 18.58 153.401 17.0866C154.121 15.5666 155.121 14.3933 156.401 13.5666C157.707 12.74 159.214 12.3266 160.921 12.3266C162.547 12.3266 163.961 12.7266 165.161 13.5266C166.387 14.3266 167.214 15.38 167.641 16.6866H167.201V6.28662C167.201 5.45995 167.414 4.83329 167.841 4.40662C168.267 3.97995 168.881 3.76662 169.681 3.76662C170.481 3.76662 171.094 3.97995 171.521 4.40662C171.974 4.83329 172.201 5.45995 172.201 6.28662V30.0466C172.201 30.8733 171.987 31.5133 171.561 31.9666C171.134 32.3933 170.521 32.6066 169.721 32.6066C168.921 32.6066 168.307 32.3933 167.881 31.9666C167.454 31.5133 167.241 30.8733 167.241 30.0466V26.9266L167.681 28.1266C167.281 29.5133 166.467 30.62 165.241 31.4466C164.014 32.2733 162.574 32.6866 160.921 32.6866ZM162.321 28.8866C163.307 28.8866 164.174 28.6466 164.921 28.1666C165.667 27.6866 166.241 26.98 166.641 26.0466C167.067 25.0866 167.281 23.9 167.281 22.4866C167.281 20.3533 166.827 18.7666 165.921 17.7266C165.014 16.66 163.814 16.1266 162.321 16.1266C161.334 16.1266 160.467 16.3666 159.721 16.8466C158.974 17.3 158.387 18.0066 157.961 18.9666C157.561 19.9 157.361 21.0733 157.361 22.4866C157.361 24.5933 157.814 26.1933 158.721 27.2866C159.627 28.3533 160.827 28.8866 162.321 28.8866ZM187.025 32.6866C184.812 32.6866 182.905 32.2733 181.305 31.4466C179.705 30.62 178.465 29.4466 177.585 27.9266C176.732 26.4066 176.305 24.6066 176.305 22.5266C176.305 20.5 176.718 18.7266 177.545 17.2066C178.398 15.6866 179.558 14.5 181.025 13.6466C182.518 12.7666 184.212 12.3266 186.105 12.3266C187.492 12.3266 188.732 12.5533 189.825 13.0066C190.945 13.46 191.892 14.1133 192.665 14.9666C193.465 15.82 194.065 16.86 194.465 18.0866C194.892 19.2866 195.105 20.6466 195.105 22.1666C195.105 22.6466 194.932 23.02 194.585 23.2866C194.265 23.5266 193.798 23.6466 193.185 23.6466H180.345V20.7666H191.585L190.945 21.3666C190.945 20.14 190.758 19.1133 190.385 18.2866C190.038 17.46 189.518 16.8333 188.825 16.4066C188.158 15.9533 187.318 15.7266 186.305 15.7266C185.185 15.7266 184.225 15.9933 183.425 16.5266C182.652 17.0333 182.052 17.7666 181.625 18.7266C181.225 19.66 181.025 20.78 181.025 22.0866V22.3666C181.025 24.5533 181.532 26.1933 182.545 27.2866C183.585 28.3533 185.105 28.8866 187.105 28.8866C187.798 28.8866 188.572 28.8066 189.425 28.6466C190.305 28.46 191.132 28.1533 191.905 27.7266C192.465 27.4066 192.958 27.2733 193.385 27.3266C193.812 27.3533 194.145 27.5 194.385 27.7666C194.652 28.0333 194.812 28.3666 194.865 28.7666C194.918 29.14 194.838 29.5266 194.625 29.9266C194.438 30.3266 194.105 30.6733 193.625 30.9666C192.692 31.5533 191.612 31.9933 190.385 32.2866C189.185 32.5533 188.065 32.6866 187.025 32.6866Z" fill="white"/>
<path d="M44.0017 31.9666L43.919 32.0445L43.924 32.0492L44.0017 31.9666ZM44.0017 13.0466L43.9215 12.9664L43.9215 12.9664L44.0017 13.0466ZM47.6017 13.0466L47.6819 12.9664L47.6819 12.9664L47.6017 13.0466ZM48.2417 17.4466V17.5601H48.3552V17.4466H48.2417ZM47.8417 17.4466L47.7312 17.4208L47.6987 17.5601H47.8417V17.4466ZM50.0417 13.8066L50.1101 13.8971L50.1101 13.8971L50.0417 13.8066ZM54.4017 12.3266L54.4117 12.4396L54.4125 12.4396L54.4017 12.3266ZM55.7217 12.7666L55.6381 12.8438L55.6448 12.85L55.7217 12.7666ZM56.3217 14.2866L56.2086 14.2953L56.2086 14.2957L56.3217 14.2866ZM55.8417 15.9266L55.7563 15.8519L55.756 15.8523L55.8417 15.9266ZM54.2417 16.6466L54.252 16.7596L54.2542 16.7594L54.2417 16.6466ZM53.3617 16.7266L53.3514 16.6136L53.3506 16.6137L53.3617 16.7266ZM49.6817 18.2466L49.762 18.3269L49.7632 18.3256L49.6817 18.2466ZM47.8017 31.9666L47.882 32.0469L47.8843 32.0444L47.8017 31.9666ZM45.9217 32.4932C45.1142 32.4932 44.5056 32.2851 44.0795 31.884L43.924 32.0492C44.4045 32.5015 45.0759 32.7201 45.9217 32.7201V32.4932ZM44.0843 31.8889C43.6833 31.4627 43.4752 30.8541 43.4752 30.0466H43.2483C43.2483 30.8925 43.4668 31.5639 43.9191 32.0444L44.0843 31.8889ZM43.4752 30.0466V14.9266H43.2483V30.0466H43.4752ZM43.4752 14.9266C43.4752 14.1187 43.6834 13.5253 44.0819 13.1268L43.9215 12.9664C43.4667 13.4212 43.2483 14.0813 43.2483 14.9266H43.4752ZM44.0819 13.1268C44.4818 12.727 45.0496 12.5201 45.8017 12.5201V12.2932C45.0072 12.2932 44.375 12.5129 43.9215 12.9664L44.0819 13.1268ZM45.8017 12.5201C46.5538 12.5201 47.1217 12.727 47.5215 13.1268L47.6819 12.9664C47.2285 12.5129 46.5963 12.2932 45.8017 12.2932V12.5201ZM47.5215 13.1268C47.92 13.5253 48.1283 14.1187 48.1283 14.9266H48.3552C48.3552 14.0813 48.1368 13.4212 47.6819 12.9664L47.5215 13.1268ZM48.1283 14.9266V17.4466H48.3552V14.9266H48.1283ZM48.2417 17.3332H47.8417V17.5601H48.2417V17.3332ZM47.9522 17.4724C48.3208 15.8929 49.042 14.7048 50.1101 13.8971L49.9733 13.7161C48.8548 14.5618 48.1093 15.8004 47.7312 17.4208L47.9522 17.4724ZM50.1101 13.8971C51.1818 13.0869 52.6128 12.5984 54.4117 12.4396L54.3917 12.2136C52.564 12.3749 51.0883 12.873 49.9733 13.7161L50.1101 13.8971ZM54.4125 12.4396C54.9448 12.3889 55.3471 12.5281 55.6384 12.8436L55.8051 12.6897C55.4563 12.3118 54.9786 12.1577 54.391 12.2137L54.4125 12.4396ZM55.6448 12.85C55.9623 13.1431 56.1564 13.6172 56.2086 14.2953L56.4348 14.2779C56.3803 13.5693 56.1745 13.0302 55.7987 12.6833L55.6448 12.85ZM56.2086 14.2957C56.26 14.9377 56.1059 15.4524 55.7563 15.8519L55.9271 16.0013C56.3242 15.5475 56.4901 14.9688 56.4348 14.2776L56.2086 14.2957ZM55.756 15.8523C55.434 16.2239 54.9314 16.4558 54.2292 16.5339L54.2542 16.7594C54.992 16.6774 55.5561 16.4294 55.9275 16.0009L55.756 15.8523ZM54.2314 16.5336L53.3514 16.6136L53.372 16.8396L54.252 16.7596L54.2314 16.5336ZM53.3506 16.6137C51.7072 16.7754 50.4516 17.2889 49.6002 18.1677L49.7632 18.3256C50.5652 17.4977 51.7629 16.9979 53.3728 16.8395L53.3506 16.6137ZM49.6015 18.1664C48.7477 19.0202 48.3283 20.2259 48.3283 21.7666H48.5552C48.5552 20.2673 48.9624 19.1264 49.7619 18.3268L49.6015 18.1664ZM48.3283 21.7666V30.0466H48.5552V21.7666H48.3283ZM48.3283 30.0466C48.3283 30.8541 48.1202 31.4627 47.7191 31.8889L47.8843 32.0444C48.3366 31.5639 48.5552 30.8925 48.5552 30.0466H48.3283ZM47.7215 31.8864C47.323 32.2849 46.7297 32.4932 45.9217 32.4932V32.7201C46.7671 32.7201 47.4271 32.5017 47.8819 32.0468L47.7215 31.8864ZM61.4705 31.8866L61.4187 31.9876L61.4217 31.9891L61.4705 31.8866ZM58.8705 29.6466L58.7756 29.7089L58.7769 29.7108L58.8705 29.6466ZM59.0705 23.0866L59.1547 23.1627L59.1558 23.1613L59.0705 23.0866ZM62.7105 21.2466L62.6859 21.1359L62.6859 21.1359L62.7105 21.2466ZM71.4705 20.6866H71.5839V20.5732H71.4705V20.6866ZM71.4705 23.5666V23.6801H71.5839V23.5666H71.4705ZM63.4305 24.6466L63.5079 24.7296L63.5081 24.7294L63.4305 24.6466ZM63.7505 28.4066L63.674 28.4904L63.674 28.4904L63.7505 28.4066ZM68.6305 28.6466L68.6888 28.7439L68.6899 28.7432L68.6305 28.6466ZM70.2705 26.9266L70.1713 26.8715L70.1713 26.8715L70.2705 26.9266ZM69.9905 16.9666L69.9102 17.0468L69.9102 17.0468L69.9905 16.9666ZM64.5105 16.3666L64.4876 16.2555L64.4869 16.2556L64.5105 16.3666ZM61.7105 17.3266L61.6631 17.2235L61.6619 17.2241L61.7105 17.3266ZM60.3505 17.5266L60.3193 17.6357L60.3212 17.6362L60.3505 17.5266ZM59.4705 16.8866L59.3738 16.9461L59.3761 16.9496L59.4705 16.8866ZM59.4705 14.6066L59.569 14.6629L59.5706 14.66L59.4705 14.6066ZM60.5505 13.7266L60.5897 13.8332L60.5938 13.8315L60.5505 13.7266ZM64.0705 12.6466L64.0497 12.5351L64.0492 12.5352L64.0705 12.6466ZM71.9105 13.2066L71.8615 13.309L71.8624 13.3094L71.9105 13.2066ZM74.7105 15.8866L74.6094 15.9383L74.6099 15.9392L74.7105 15.8866ZM75.0305 31.9666L75.1133 32.0442L75.1155 32.0417L75.0305 31.9666ZM71.5505 31.9666L71.4652 32.0418L71.4702 32.0468L71.5505 31.9666ZM70.9505 28.1266V28.0132H70.837V28.1266H70.9505ZM71.2705 28.1266L71.3817 28.1489L71.4089 28.0132H71.2705V28.1266ZM70.1505 30.5666L70.0622 30.4953L70.0619 30.4957L70.1505 30.5666ZM68.1105 32.1266L68.1572 32.23L68.1572 32.23L68.1105 32.1266ZM65.2705 32.5732C63.8717 32.5732 62.622 32.3093 61.5192 31.7842L61.4217 31.9891C62.5589 32.5306 63.8426 32.8001 65.2705 32.8001V32.5732ZM61.5222 31.7856C60.4442 31.2335 59.5925 30.4989 58.964 29.5825L58.7769 29.7108C59.4285 30.661 60.3101 31.4197 61.4187 31.9876L61.5222 31.7856ZM58.9653 29.5843C58.3647 28.6704 58.0639 27.639 58.0639 26.4866H57.837C57.837 27.6809 58.1495 28.7561 58.7757 29.7089L58.9653 29.5843ZM58.0639 26.4866C58.0639 25.0663 58.4318 23.963 59.1547 23.1627L58.9863 23.0106C58.2158 23.8636 57.837 25.027 57.837 26.4866H58.0639ZM59.1558 23.1613C59.8803 22.3334 61.0671 21.728 62.7351 21.3574L62.6859 21.1359C60.9938 21.5119 59.754 22.1332 58.9851 23.0119L59.1558 23.1613ZM62.7351 21.3574C64.4035 20.9866 66.6475 20.8001 69.4705 20.8001V20.5732C66.6401 20.5732 64.3774 20.76 62.6859 21.1359L62.7351 21.3574ZM69.4705 20.8001H71.4705V20.5732H69.4705V20.8001ZM71.357 20.6866V23.5666H71.5839V20.6866H71.357ZM71.4705 23.4532H69.5105V23.6801H71.4705V23.4532ZM69.5105 23.4532C67.8544 23.4532 66.5276 23.5332 65.5323 23.6946L65.5686 23.9186C66.5467 23.76 67.8598 23.6801 69.5105 23.6801V23.4532ZM65.5323 23.6946C64.5374 23.856 63.804 24.1409 63.3529 24.5639L63.5081 24.7294C63.9103 24.3523 64.5902 24.0773 65.5686 23.9186L65.5323 23.6946ZM63.3531 24.5637C62.9243 24.9639 62.717 25.5308 62.717 26.2466H62.9439C62.9439 25.5758 63.1367 25.076 63.5079 24.7296L63.3531 24.5637ZM62.717 26.2466C62.717 27.1564 63.0356 27.9075 63.674 28.4904L63.827 28.3228C63.2387 27.7857 62.9439 27.0969 62.9439 26.2466H62.717ZM63.674 28.4904C64.3141 29.0749 65.198 29.3601 66.3105 29.3601V29.1332C65.2363 29.1332 64.4135 28.8584 63.827 28.3228L63.674 28.4904ZM66.3105 29.3601C67.2083 29.3601 68.0023 29.1558 68.6888 28.7439L68.5721 28.5493C67.9253 28.9374 67.1727 29.1332 66.3105 29.1332V29.3601ZM68.6899 28.7432C69.4 28.3062 69.9603 27.7185 70.3696 26.9817L70.1713 26.8715C69.7806 27.5747 69.2476 28.1337 68.571 28.55L68.6899 28.7432ZM70.3696 26.9817C70.7802 26.2427 70.9839 25.3966 70.9839 24.4466H70.757C70.757 25.3633 70.5607 26.1705 70.1713 26.8715L70.3696 26.9817ZM70.9839 24.4466V19.8466H70.757V24.4466H70.9839ZM70.9839 19.8466C70.9839 18.5007 70.6885 17.5042 70.0707 16.8864L69.9102 17.0468C70.4658 17.6024 70.757 18.5258 70.757 19.8466H70.9839ZM70.0707 16.8864C69.4523 16.268 68.4281 15.9732 67.0305 15.9732V16.2001C68.4061 16.2001 69.3553 16.4919 69.9102 17.0468L70.0707 16.8864ZM67.0305 15.9732C66.2481 15.9732 65.4004 16.0676 64.4876 16.2555L64.5333 16.4777C65.4339 16.2923 66.2661 16.2001 67.0305 16.2001V15.9732ZM64.4869 16.2556C63.5972 16.4444 62.6559 16.7674 61.6631 17.2235L61.7578 17.4297C62.7384 16.9792 63.6637 16.6622 64.534 16.4776L64.4869 16.2556ZM61.6619 17.2241C61.1709 17.4567 60.7458 17.5146 60.3797 17.417L60.3212 17.6362C60.7551 17.7519 61.2367 17.6766 61.759 17.4291L61.6619 17.2241ZM60.3816 17.4175C60.0339 17.3182 59.7631 17.1211 59.5649 16.8237L59.3761 16.9496C59.6045 17.2922 59.9204 17.5217 60.3193 17.6357L60.3816 17.4175ZM59.5671 16.8272C59.3646 16.498 59.2639 16.1452 59.2639 15.7666H59.037C59.037 16.188 59.1497 16.5819 59.3738 16.9461L59.5671 16.8272ZM59.2639 15.7666C59.2639 15.3878 59.3647 15.0204 59.569 14.6629L59.372 14.5503C59.1496 14.9395 59.037 15.3454 59.037 15.7666H59.2639ZM59.5706 14.66C59.7684 14.2891 60.1039 14.0121 60.5897 13.8331L60.5112 13.6202C59.9837 13.8145 59.5992 14.1241 59.3704 14.5532L59.5706 14.66ZM60.5938 13.8315C61.8145 13.3273 62.9804 12.9697 64.0917 12.7581L64.0492 12.5352C62.9206 12.7502 61.7398 13.1126 60.5072 13.6218L60.5938 13.8315ZM64.0912 12.7582C65.2327 12.5458 66.2656 12.4401 67.1905 12.4401V12.2132C66.2487 12.2132 65.2016 12.3208 64.0497 12.5351L64.0912 12.7582ZM67.1905 12.4401C69.1 12.4401 70.6551 12.732 71.8615 13.309L71.9594 13.1043C70.7125 12.5079 69.1209 12.2132 67.1905 12.2132V12.4401ZM71.8624 13.3094C73.0935 13.8857 74.0079 14.7613 74.6094 15.9383L74.8115 15.835C74.1864 14.6119 73.2341 13.7009 71.9586 13.1039L71.8624 13.3094ZM74.6099 15.9392C75.212 17.091 75.517 18.5912 75.517 20.4466H75.7439C75.7439 18.5687 75.4356 17.0289 74.811 15.8341L74.6099 15.9392ZM75.517 20.4466V30.0466H75.7439V20.4466H75.517ZM75.517 30.0466C75.517 30.8559 75.3213 31.4655 74.9454 31.8916L75.1155 32.0417C75.5396 31.5611 75.7439 30.8907 75.7439 30.0466H75.517ZM74.9477 31.889C74.5747 32.2869 74.035 32.4932 73.3105 32.4932V32.7201C74.0793 32.7201 74.6862 32.4997 75.1132 32.0442L74.9477 31.889ZM73.3105 32.4932C72.5863 32.4932 72.0313 32.287 71.6307 31.8864L71.4702 32.0468C71.923 32.4996 72.5413 32.7201 73.3105 32.7201V32.4932ZM71.6355 31.8916C71.2596 31.4655 71.0639 30.8559 71.0639 30.0466H70.837C70.837 30.8907 71.0413 31.5611 71.4654 32.0417L71.6355 31.8916ZM71.0639 30.0466V28.1266H70.837V30.0466H71.0639ZM70.9505 28.2401H71.2705V28.0132H70.9505V28.2401ZM71.1592 28.1044C70.9759 29.021 70.6099 29.8172 70.0622 30.4953L70.2387 30.6379C70.811 29.9294 71.1917 29.0989 71.3817 28.1489L71.1592 28.1044ZM70.0619 30.4957C69.5404 31.1475 68.8752 31.6568 68.0638 32.0232L68.1572 32.23C68.9991 31.8498 69.6938 31.319 70.2391 30.6375L70.0619 30.4957ZM68.0638 32.0232C67.2541 32.3889 66.3238 32.5732 65.2705 32.5732V32.8001C66.3504 32.8001 67.3135 32.611 68.1572 32.23L68.0638 32.0232ZM83.7055 31.4466L83.6439 31.5419L83.6448 31.5425L83.7055 31.4466ZM80.7055 27.9266L80.6026 27.9745L80.6029 27.9752L80.7055 27.9266ZM80.7055 17.0866L80.8077 17.1359L80.808 17.1352L80.7055 17.0866ZM83.7055 13.5666L83.6448 13.4707L83.6439 13.4713L83.7055 13.5666ZM92.4655 13.5266L92.4025 13.621L92.4035 13.6216L92.4655 13.5266ZM94.9455 16.6866V16.8001H95.1019L95.0533 16.6514L94.9455 16.6866ZM94.5055 16.6866H94.392V16.8001H94.5055V16.6866ZM95.1455 4.40662L95.2257 4.48684L95.2257 4.48684L95.1455 4.40662ZM98.8255 4.40662L98.7452 4.48688L98.7477 4.48923L98.8255 4.40662ZM98.8655 31.9666L98.9457 32.0469L98.9481 32.0444L98.8655 31.9666ZM95.1855 31.9666L95.1028 32.0444L95.1052 32.0468L95.1855 31.9666ZM94.5455 26.9266L94.652 26.8876L94.432 26.9266H94.5455ZM94.9855 28.1266L95.0945 28.1581L95.1048 28.1224L95.092 28.0876L94.9855 28.1266ZM92.5455 31.4466L92.6089 31.5407L92.6089 31.5407L92.5455 31.4466ZM92.2255 28.1666L92.1641 28.0712L92.1641 28.0712L92.2255 28.1666ZM93.9455 26.0466L93.8418 26.0005L93.8412 26.0019L93.9455 26.0466ZM93.2255 17.7266L93.139 17.8001L93.14 17.8012L93.2255 17.7266ZM87.0255 16.8466L87.0844 16.9436L87.0868 16.9421L87.0255 16.8466ZM85.2655 18.9666L85.1618 18.9205L85.1612 18.9219L85.2655 18.9666ZM86.0255 27.2866L85.9381 27.359L85.939 27.3601L86.0255 27.2866ZM88.2255 32.5732C86.538 32.5732 85.0528 32.1648 83.7661 31.3507L83.6448 31.5425C84.9715 32.3818 86.4996 32.8001 88.2255 32.8001V32.5732ZM83.767 31.3513C82.5066 30.5373 81.5199 29.381 80.808 27.8781L80.6029 27.9752C81.331 29.5122 82.3444 30.7026 83.6439 31.5419L83.767 31.3513ZM80.8083 27.8787C80.0967 26.35 79.7389 24.5536 79.7389 22.4866H79.512C79.512 24.5796 79.8743 26.4099 80.6026 27.9745L80.8083 27.8787ZM79.7389 22.4866C79.7389 20.3925 80.0968 18.6103 80.8077 17.1359L80.6033 17.0373C79.8741 18.5496 79.512 20.3674 79.512 22.4866H79.7389ZM80.808 17.1352C81.5199 15.6322 82.5066 14.476 83.767 13.6619L83.6439 13.4713C82.3444 14.3106 81.331 15.501 80.6029 17.0381L80.808 17.1352ZM83.7661 13.6625C85.0528 12.8485 86.538 12.4401 88.2255 12.4401V12.2132C86.4996 12.2132 84.9715 12.6314 83.6448 13.4707L83.7661 13.6625ZM88.2255 12.4401C89.8327 12.4401 91.2235 12.835 92.4025 13.621L92.5284 13.4322C91.3074 12.6183 89.8716 12.2132 88.2255 12.2132V12.4401ZM92.4035 13.6216C93.61 14.4085 94.4195 15.4414 94.8376 16.7218L95.0533 16.6514C94.6181 15.3185 93.7742 14.2447 92.5274 13.4316L92.4035 13.6216ZM94.9455 16.5732H94.5055V16.8001H94.9455V16.5732ZM94.6189 16.6866V6.28662H94.392V16.6866H94.6189ZM94.6189 6.28662C94.6189 5.47865 94.8272 4.88534 95.2257 4.48684L95.0652 4.3264C94.6104 4.78123 94.392 5.44125 94.392 6.28662H94.6189ZM95.2257 4.48684C95.6248 4.08769 96.2054 3.88007 96.9855 3.88007V3.65317C96.1655 3.65317 95.5194 3.87222 95.0652 4.3264L95.2257 4.48684ZM96.9855 3.88007C97.7655 3.88007 98.3461 4.08769 98.7452 4.48684L98.9057 4.3264C98.4515 3.87222 97.8054 3.65317 96.9855 3.65317V3.88007ZM98.7477 4.48923C99.1715 4.88808 99.392 5.48052 99.392 6.28662H99.6189C99.6189 5.43939 99.3861 4.77849 98.9032 4.32401L98.7477 4.48923ZM99.392 6.28662V30.0466H99.6189V6.28662H99.392ZM99.392 30.0466C99.392 30.8541 99.1839 31.4627 98.7829 31.8889L98.9481 32.0444C99.4003 31.5639 99.6189 30.8925 99.6189 30.0466H99.392ZM98.7852 31.8864C98.3861 32.2856 97.8055 32.4932 97.0255 32.4932V32.7201C97.8454 32.7201 98.4915 32.501 98.9457 32.0468L98.7852 31.8864ZM97.0255 32.4932C96.2454 32.4932 95.6648 32.2856 95.2657 31.8864L95.1052 32.0468C95.5594 32.501 96.2055 32.7201 97.0255 32.7201V32.4932ZM95.2681 31.8889C94.867 31.4627 94.6589 30.8541 94.6589 30.0466H94.432C94.432 30.8925 94.6506 31.5639 95.1029 32.0444L95.2681 31.8889ZM94.6589 30.0466V26.9266H94.432V30.0466H94.6589ZM94.439 26.9657L94.879 28.1657L95.092 28.0876L94.652 26.8876L94.439 26.9657ZM94.8765 28.0952C94.484 29.4556 93.6873 30.5403 92.4821 31.3525L92.6089 31.5407C93.857 30.6996 94.6869 29.571 95.0945 28.1581L94.8765 28.0952ZM92.4821 31.3525C91.2763 32.1651 89.859 32.5732 88.2255 32.5732V32.8001C89.8986 32.8001 91.3613 32.3815 92.6089 31.5407L92.4821 31.3525ZM89.6255 29.0001C90.6314 29.0001 91.5198 28.7551 92.2868 28.2621L92.1641 28.0712C91.4378 28.5381 90.5929 28.7732 89.6255 28.7732V29.0001ZM92.2868 28.2621C93.0552 27.7681 93.6421 27.0424 94.0497 26.0913L93.8412 26.0019C93.4488 26.9175 92.8891 27.6051 92.1641 28.0712L92.2868 28.2621ZM94.0491 26.0927C94.4841 25.1141 94.6989 23.9106 94.6989 22.4866H94.472C94.472 23.8893 94.2602 25.0591 93.8418 26.0005L94.0491 26.0927ZM94.6989 22.4866C94.6989 20.3402 94.2433 18.7214 93.311 17.6521L93.14 17.8012C94.021 18.8118 94.472 20.3664 94.472 22.4866H94.6989ZM93.3119 17.6531C92.3821 16.5593 91.1496 16.0132 89.6255 16.0132V16.2401C91.088 16.2401 92.2555 16.7607 93.139 17.8001L93.3119 17.6531ZM89.6255 16.0132C88.6196 16.0132 87.7311 16.2581 86.9641 16.7512L87.0868 16.9421C87.8132 16.4751 88.658 16.2401 89.6255 16.2401V16.0132ZM86.9666 16.7496C86.1964 17.2172 85.5959 17.9438 85.1618 18.9205L85.3691 19.0127C85.7884 18.0695 86.3612 17.3827 87.0843 16.9436L86.9666 16.7496ZM85.1612 18.9219C84.7533 19.8738 84.552 21.0635 84.552 22.4866H84.7789C84.7789 21.083 84.9777 19.9261 85.3697 19.0113L85.1612 18.9219ZM84.552 22.4866C84.552 24.6074 85.0081 26.2375 85.9381 27.359L86.1128 27.2142C85.2295 26.149 84.7789 24.5792 84.7789 22.4866H84.552ZM85.939 27.3601C86.8688 28.454 88.1014 29.0001 89.6255 29.0001V28.7732C88.1629 28.7732 86.9954 28.2526 86.1119 27.2131L85.939 27.3601ZM105.33 31.8466L105.245 31.922L105.245 31.922L105.33 31.8466ZM105.33 13.1666L105.412 13.2444L105.415 13.242L105.33 13.1666ZM109.01 13.1666L108.925 13.2421L108.93 13.2468L109.01 13.1666ZM109.05 31.8466L108.965 31.7712L108.965 31.7712L109.05 31.8466ZM104.97 8.04662L104.892 8.1291L104.896 8.13306L104.97 8.04662ZM104.97 4.12662L104.896 4.04015L104.894 4.04207L104.97 4.12662ZM109.37 4.12662L109.445 4.04207L109.445 4.04207L109.37 4.12662ZM109.37 8.04662L109.446 8.1312L109.448 8.12898L109.37 8.04662ZM107.17 32.4532C106.394 32.4532 105.815 32.2213 105.415 31.7712L105.245 31.922C105.698 32.432 106.346 32.6801 107.17 32.6801V32.4532ZM105.415 31.7712C105.012 31.318 104.803 30.6815 104.803 29.8466H104.576C104.576 30.7185 104.795 31.4152 105.245 31.922L105.415 31.7712ZM104.803 29.8466V15.1666H104.576V29.8466H104.803ZM104.803 15.1666C104.803 14.3035 105.013 13.6693 105.412 13.2444L105.247 13.0889C104.794 13.5706 104.576 14.2697 104.576 15.1666H104.803ZM105.415 13.242C105.815 12.792 106.394 12.5601 107.17 12.5601V12.3332C106.346 12.3332 105.698 12.5813 105.245 13.0912L105.415 13.242ZM107.17 12.5601C107.946 12.5601 108.525 12.792 108.925 13.242L109.095 13.0912C108.641 12.5813 107.994 12.3332 107.17 12.3332V12.5601ZM108.93 13.2468C109.355 13.672 109.576 14.3052 109.576 15.1666H109.803C109.803 14.268 109.572 13.5679 109.09 13.0864L108.93 13.2468ZM109.576 15.1666V29.8466H109.803V15.1666H109.576ZM109.576 29.8466C109.576 30.6815 109.368 31.318 108.965 31.7712L109.135 31.922C109.585 31.4152 109.803 30.7185 109.803 29.8466H109.576ZM108.965 31.7712C108.566 32.2205 107.974 32.4532 107.17 32.4532V32.6801C108.019 32.6801 108.681 32.4328 109.135 31.922L108.965 31.7712ZM107.17 8.61317C106.254 8.61317 105.55 8.39099 105.043 7.96018L104.896 8.13306C105.456 8.60891 106.219 8.84007 107.17 8.84007V8.61317ZM105.048 7.96426C104.568 7.50962 104.323 6.88836 104.323 6.08662H104.096C104.096 6.93821 104.358 7.62362 104.892 8.12898L105.048 7.96426ZM104.323 6.08662C104.323 5.25672 104.569 4.63771 105.045 4.21117L104.894 4.04207C104.358 4.52219 104.096 5.20985 104.096 6.08662H104.323ZM105.043 4.21306C105.55 3.78225 106.254 3.56007 107.17 3.56007V3.33317C106.219 3.33317 105.456 3.56433 104.896 4.04018L105.043 4.21306ZM107.17 3.56007C108.113 3.56007 108.816 3.78288 109.294 4.21117L109.445 4.04207C108.911 3.56369 108.146 3.33317 107.17 3.33317V3.56007ZM109.294 4.21117C109.771 4.63771 110.016 5.25672 110.016 6.08662H110.243C110.243 5.20985 109.982 4.52219 109.445 4.04207L109.294 4.21117ZM110.016 6.08662C110.016 6.88836 109.772 7.50962 109.292 7.96426L109.448 8.12898C109.981 7.62362 110.243 6.93821 110.243 6.08662H110.016ZM109.294 7.96207C108.816 8.39036 108.113 8.61317 107.17 8.61317V8.84007C108.146 8.84007 108.911 8.60955 109.445 8.13117L109.294 7.96207ZM119.485 31.8066L119.433 31.9076L119.434 31.9081L119.485 31.8066ZM116.925 29.2466L116.823 29.2964L116.824 29.2974L116.925 29.2466ZM116.085 16.4866H116.199V16.3732H116.085V16.4866ZM112.525 16.0066L112.445 16.0869L112.448 16.09L112.525 16.0066ZM112.525 13.2066L112.448 13.1233L112.448 13.1233L112.525 13.2066ZM116.085 12.7266V12.8401H116.199V12.7266H116.085ZM116.725 7.20662L116.647 7.12397L116.645 7.1264L116.725 7.20662ZM120.445 7.20662L120.525 7.1264L120.525 7.1264L120.445 7.20662ZM121.085 12.7266H120.972V12.8401H121.085V12.7266ZM126.805 13.2066L126.728 13.29L126.728 13.29L126.805 13.2066ZM126.805 16.0066L126.882 16.0901L126.885 16.0868L126.805 16.0066ZM121.085 16.4866V16.3732H120.972V16.4866H121.085ZM121.925 27.6066L121.84 27.6813L121.84 27.6813L121.925 27.6066ZM125.845 28.4466L125.871 28.5572L125.871 28.5572L125.845 28.4466ZM126.765 28.2866L126.756 28.1735L126.754 28.1737L126.765 28.2866ZM127.565 28.6066L127.48 28.6821L127.485 28.6868L127.565 28.6066ZM127.605 31.4066L127.501 31.3611L127.5 31.3645L127.605 31.4066ZM126.685 32.2466L126.719 32.3551L126.723 32.3536L126.685 32.2466ZM125.325 32.5266L125.309 32.4142L125.304 32.4152L125.325 32.5266ZM123.845 32.5732C122.124 32.5732 120.689 32.2818 119.536 31.7051L119.434 31.9081C120.628 32.5048 122.1 32.8001 123.845 32.8001V32.5732ZM119.537 31.7056C118.411 31.1296 117.575 30.2936 117.027 29.1959L116.824 29.2974C117.395 30.4396 118.266 31.3103 119.433 31.9076L119.537 31.7056ZM117.027 29.1968C116.477 28.0698 116.199 26.6746 116.199 25.0066H115.972C115.972 26.6986 116.254 28.1301 116.823 29.2964L117.027 29.1968ZM116.199 25.0066V16.4866H115.972V25.0066H116.199ZM116.085 16.3732H114.005V16.6001H116.085V16.3732ZM114.005 16.3732C113.383 16.3732 112.921 16.2179 112.602 15.9233L112.448 16.09C112.822 16.4353 113.347 16.6001 114.005 16.6001V16.3732ZM112.605 15.9264C112.284 15.6051 112.119 15.1695 112.119 14.6066H111.892C111.892 15.217 112.073 15.7148 112.445 16.0868L112.605 15.9264ZM112.119 14.6066C112.119 14.0149 112.285 13.5825 112.602 13.29L112.448 13.1233C112.072 13.4707 111.892 13.9717 111.892 14.6066H112.119ZM112.602 13.29C112.921 12.9953 113.383 12.8401 114.005 12.8401V12.6132C113.347 12.6132 112.822 12.7779 112.448 13.1233L112.602 13.29ZM114.005 12.8401H116.085V12.6132H114.005V12.8401ZM116.199 12.7266V9.08662H115.972V12.7266H116.199ZM116.199 9.08662C116.199 8.27865 116.407 7.68534 116.805 7.28684L116.645 7.1264C116.19 7.58123 115.972 8.24126 115.972 9.08662H116.199ZM116.803 7.28923C117.23 6.88754 117.826 6.68007 118.605 6.68007V6.45317C117.785 6.45317 117.127 6.67237 116.647 7.12401L116.803 7.28923ZM118.605 6.68007C119.385 6.68007 119.966 6.88769 120.365 7.28684L120.525 7.1264C120.071 6.67222 119.425 6.45317 118.605 6.45317V6.68007ZM120.365 7.28684C120.763 7.68534 120.972 8.27865 120.972 9.08662H121.199C121.199 8.24126 120.98 7.58123 120.525 7.1264L120.365 7.28684ZM120.972 9.08662V12.7266H121.199V9.08662H120.972ZM121.085 12.8401H125.325V12.6132H121.085V12.8401ZM125.325 12.8401C125.947 12.8401 126.409 12.9953 126.728 13.29L126.882 13.1233C126.508 12.7779 125.983 12.6132 125.325 12.6132V12.8401ZM126.728 13.29C127.045 13.5825 127.212 14.0149 127.212 14.6066H127.439C127.439 13.9717 127.259 13.4707 126.882 13.1233L126.728 13.29ZM127.212 14.6066C127.212 15.1695 127.046 15.6051 126.725 15.9264L126.885 16.0868C127.257 15.7148 127.439 15.217 127.439 14.6066H127.212ZM126.728 15.9233C126.409 16.2179 125.947 16.3732 125.325 16.3732V16.6001C125.983 16.6001 126.508 16.4353 126.882 16.09L126.728 15.9233ZM125.325 16.3732H121.085V16.6001H125.325V16.3732ZM120.972 16.4866V24.7266H121.199V16.4866H120.972ZM120.972 24.7266C120.972 26.0207 121.254 27.0124 121.84 27.6813L122.011 27.5319C121.476 26.9209 121.199 25.9926 121.199 24.7266H120.972ZM121.84 27.6813C122.43 28.3557 123.375 28.6801 124.645 28.6801V28.4532C123.409 28.4532 122.54 28.1375 122.011 27.5319L121.84 27.6813ZM124.645 28.6801C125.105 28.6801 125.514 28.6395 125.871 28.5572L125.82 28.3361C125.483 28.4137 125.092 28.4532 124.645 28.4532V28.6801ZM125.871 28.5572C126.214 28.4779 126.516 28.4256 126.776 28.3995L126.754 28.1737C126.481 28.201 126.17 28.2553 125.82 28.3361L125.871 28.5572ZM126.775 28.3997C127.059 28.376 127.291 28.4687 127.48 28.682L127.65 28.5312C127.413 28.2646 127.111 28.1439 126.756 28.1736L126.775 28.3997ZM127.485 28.6868C127.571 28.7726 127.644 28.9162 127.695 29.1326C127.745 29.3477 127.772 29.6249 127.772 29.9666H127.999C127.999 29.615 127.972 29.3189 127.916 29.0806C127.86 28.8437 127.773 28.654 127.645 28.5264L127.485 28.6868ZM127.772 29.9666C127.772 30.4866 127.681 30.9508 127.501 31.3611L127.709 31.4521C127.903 31.0092 127.999 30.5133 127.999 29.9666H127.772ZM127.5 31.3645C127.353 31.7304 127.074 31.9891 126.647 32.1396L126.723 32.3536C127.203 32.1841 127.537 31.8828 127.71 31.4488L127.5 31.3645ZM126.652 32.1382C126.313 32.2424 125.866 32.3347 125.309 32.4143L125.341 32.6389C125.904 32.5585 126.364 32.4641 126.719 32.3551L126.652 32.1382ZM125.304 32.4152C124.749 32.5209 124.263 32.5732 123.845 32.5732V32.8001C124.281 32.8001 124.782 32.7457 125.346 32.6381L125.304 32.4152ZM133.277 31.8066L133.22 31.905L133.222 31.906L133.277 31.8066ZM130.877 29.0866L130.772 29.1308L130.773 29.1327L130.877 29.0866ZM130.757 13.0466L130.834 13.1294L130.837 13.1268L130.757 13.0466ZM134.437 13.0466L134.356 13.127L134.362 13.1317L134.437 13.0466ZM135.957 27.7666L135.87 27.8396L135.87 27.8396L135.957 27.7666ZM141.917 27.4066L141.999 27.4844L142 27.4832L141.917 27.4066ZM143.837 13.0466L143.914 13.1294L143.917 13.1268L143.837 13.0466ZM147.517 13.0466L147.436 13.127L147.442 13.1317L147.517 13.0466ZM143.957 31.9666L143.874 32.0444L143.876 32.0468L143.957 31.9666ZM143.317 27.0066L143.42 26.9586L143.203 27.0066H143.317ZM143.877 28.2066L143.982 28.2477L144 28.2026L143.98 28.1586L143.877 28.2066ZM141.317 31.5266L141.253 31.4326L141.252 31.4333L141.317 31.5266ZM137.317 32.5732C135.703 32.5732 134.377 32.2821 133.331 31.7072L133.222 31.906C134.31 32.5045 135.677 32.8001 137.317 32.8001V32.5732ZM133.333 31.7083C132.289 31.1078 131.505 30.2201 130.98 29.0405L130.773 29.1327C131.315 30.3531 132.131 31.2788 133.22 31.905L133.333 31.7083ZM130.981 29.0425C130.482 27.8606 130.23 26.3834 130.23 24.6066H130.003C130.003 26.4032 130.258 27.9126 130.772 29.1307L130.981 29.0425ZM130.23 24.6066V14.9266H130.003V24.6066H130.23ZM130.23 14.9266C130.23 14.0901 130.439 13.4997 130.834 13.1294L130.679 12.9639C130.221 13.3935 130.003 14.0565 130.003 14.9266H130.23ZM130.837 13.1268C131.236 12.7277 131.817 12.5201 132.597 12.5201V12.2932C131.777 12.2932 131.131 12.5122 130.676 12.9664L130.837 13.1268ZM132.597 12.5201C133.377 12.5201 133.957 12.7277 134.356 13.1268L134.517 12.9664C134.063 12.5122 133.417 12.2932 132.597 12.2932V12.5201ZM134.362 13.1317C134.782 13.5024 135.003 14.092 135.003 14.9266H135.23C135.23 14.0546 134.998 13.3908 134.512 12.9616L134.362 13.1317ZM135.003 14.9266V24.6866H135.23V14.9266H135.003ZM135.003 24.6866C135.003 26.0851 135.285 27.1434 135.87 27.8396L136.044 27.6937C135.508 27.0565 135.23 26.0615 135.23 24.6866H135.003ZM135.87 27.8396C136.459 28.5411 137.391 28.8801 138.637 28.8801V28.6532C137.429 28.6532 136.574 28.3254 136.044 27.6937L135.87 27.8396ZM138.637 28.8801C139.999 28.8801 141.123 28.4156 141.999 27.4844L141.834 27.3289C141.004 28.211 139.941 28.6532 138.637 28.6532V28.8801ZM142 27.4832C142.877 26.5249 143.31 25.2689 143.31 23.7266H143.083C143.083 25.2243 142.663 26.4217 141.833 27.3301L142 27.4832ZM143.31 23.7266V14.9266H143.083V23.7266H143.31ZM143.31 14.9266C143.31 14.0901 143.519 13.4997 143.914 13.1294L143.759 12.9639C143.301 13.3935 143.083 14.0565 143.083 14.9266H143.31ZM143.917 13.1268C144.316 12.7277 144.897 12.5201 145.677 12.5201V12.2932C144.857 12.2932 144.211 12.5122 143.756 12.9664L143.917 13.1268ZM145.677 12.5201C146.457 12.5201 147.037 12.7277 147.436 13.1268L147.597 12.9664C147.143 12.5122 146.497 12.2932 145.677 12.2932V12.5201ZM147.442 13.1317C147.862 13.5024 148.083 14.092 148.083 14.9266H148.31C148.31 14.0546 148.078 13.3908 147.592 12.9616L147.442 13.1317ZM148.083 14.9266V30.0466H148.31V14.9266H148.083ZM148.083 30.0466C148.083 30.8838 147.884 31.4906 147.505 31.8883C147.126 32.2851 146.551 32.4932 145.757 32.4932V32.7201C146.589 32.7201 147.234 32.5015 147.669 32.0449C148.103 31.5893 148.31 30.9161 148.31 30.0466H148.083ZM145.757 32.4932C145.005 32.4932 144.437 32.2862 144.037 31.8864L143.876 32.0468C144.33 32.5003 144.962 32.7201 145.757 32.7201V32.4932ZM144.039 31.8889C143.638 31.4627 143.43 30.8541 143.43 30.0466H143.203C143.203 30.8925 143.422 31.5639 143.874 32.0444L144.039 31.8889ZM143.43 30.0466V27.0066H143.203V30.0466H143.43ZM143.214 27.0546L143.774 28.2546L143.98 28.1586L143.42 26.9586L143.214 27.0546ZM143.771 28.1655C143.218 29.5866 142.379 30.6736 141.253 31.4326L141.38 31.6207C142.548 30.8329 143.415 29.7067 143.982 28.2477L143.771 28.1655ZM141.252 31.4333C140.154 32.1918 138.844 32.5732 137.317 32.5732V32.8001C138.883 32.8001 140.24 32.4081 141.381 31.62L141.252 31.4333ZM156.401 31.4466L156.339 31.5419L156.34 31.5425L156.401 31.4466ZM153.401 27.9266L153.298 27.9745L153.298 27.9752L153.401 27.9266ZM153.401 17.0866L153.503 17.1359L153.503 17.1352L153.401 17.0866ZM156.401 13.5666L156.34 13.4707L156.339 13.4713L156.401 13.5666ZM165.161 13.5266L165.098 13.621L165.099 13.6216L165.161 13.5266ZM167.641 16.6866V16.8001H167.797L167.749 16.6514L167.641 16.6866ZM167.201 16.6866H167.087V16.8001H167.201V16.6866ZM167.841 4.40662L167.921 4.48684L167.921 4.48684L167.841 4.40662ZM171.521 4.40662L171.441 4.48688L171.443 4.48923L171.521 4.40662ZM171.561 31.9666L171.641 32.0469L171.643 32.0444L171.561 31.9666ZM167.881 31.9666L167.798 32.0444L167.801 32.0468L167.881 31.9666ZM167.241 26.9266L167.347 26.8876L167.127 26.9266H167.241ZM167.681 28.1266L167.79 28.1581L167.8 28.1224L167.787 28.0876L167.681 28.1266ZM165.241 31.4466L165.304 31.5407L165.304 31.5407L165.241 31.4466ZM164.921 28.1666L164.859 28.0712L164.859 28.0712L164.921 28.1666ZM166.641 26.0466L166.537 26.0005L166.537 26.0019L166.641 26.0466ZM165.921 17.7266L165.834 17.8001L165.835 17.8012L165.921 17.7266ZM159.721 16.8466L159.78 16.9436L159.782 16.9421L159.721 16.8466ZM157.961 18.9666L157.857 18.9205L157.857 18.9219L157.961 18.9666ZM158.721 27.2866L158.633 27.359L158.634 27.3601L158.721 27.2866ZM160.921 32.5732C159.233 32.5732 157.748 32.1648 156.461 31.3507L156.34 31.5425C157.667 32.3818 159.195 32.8001 160.921 32.8001V32.5732ZM156.462 31.3513C155.202 30.5373 154.215 29.381 153.503 27.8781L153.298 27.9752C154.026 29.5122 155.04 30.7026 156.339 31.5419L156.462 31.3513ZM153.504 27.8787C152.792 26.35 152.434 24.5536 152.434 22.4866H152.207C152.207 24.5796 152.57 26.4099 153.298 27.9745L153.504 27.8787ZM152.434 22.4866C152.434 20.3925 152.792 18.6103 153.503 17.1359L153.299 17.0373C152.569 18.5496 152.207 20.3674 152.207 22.4866H152.434ZM153.503 17.1352C154.215 15.6322 155.202 14.476 156.462 13.6619L156.339 13.4713C155.04 14.3106 154.026 15.501 153.298 17.0381L153.503 17.1352ZM156.461 13.6625C157.748 12.8485 159.233 12.4401 160.921 12.4401V12.2132C159.195 12.2132 157.667 12.6314 156.34 13.4707L156.461 13.6625ZM160.921 12.4401C162.528 12.4401 163.919 12.835 165.098 13.621L165.224 13.4322C164.003 12.6183 162.567 12.2132 160.921 12.2132V12.4401ZM165.099 13.6216C166.305 14.4085 167.115 15.4414 167.533 16.7218L167.749 16.6514C167.313 15.3185 166.47 14.2447 165.223 13.4316L165.099 13.6216ZM167.641 16.5732H167.201V16.8001H167.641V16.5732ZM167.314 16.6866V6.28662H167.087V16.6866H167.314ZM167.314 6.28662C167.314 5.47865 167.523 4.88534 167.921 4.48684L167.761 4.3264C167.306 4.78123 167.087 5.44125 167.087 6.28662H167.314ZM167.921 4.48684C168.32 4.08769 168.901 3.88007 169.681 3.88007V3.65317C168.861 3.65317 168.215 3.87222 167.761 4.3264L167.921 4.48684ZM169.681 3.88007C170.461 3.88007 171.041 4.08769 171.441 4.48684L171.601 4.3264C171.147 3.87222 170.501 3.65317 169.681 3.65317V3.88007ZM171.443 4.48923C171.867 4.88808 172.087 5.48052 172.087 6.28662H172.314C172.314 5.43939 172.081 4.77849 171.599 4.32401L171.443 4.48923ZM172.087 6.28662V30.0466H172.314V6.28662H172.087ZM172.087 30.0466C172.087 30.8541 171.879 31.4627 171.478 31.8889L171.643 32.0444C172.096 31.5639 172.314 30.8925 172.314 30.0466H172.087ZM171.481 31.8864C171.081 32.2856 170.501 32.4932 169.721 32.4932V32.7201C170.541 32.7201 171.187 32.501 171.641 32.0468L171.481 31.8864ZM169.721 32.4932C168.941 32.4932 168.36 32.2856 167.961 31.8864L167.801 32.0468C168.255 32.501 168.901 32.7201 169.721 32.7201V32.4932ZM167.963 31.8889C167.562 31.4627 167.354 30.8541 167.354 30.0466H167.127C167.127 30.8925 167.346 31.5639 167.798 32.0444L167.963 31.8889ZM167.354 30.0466V26.9266H167.127V30.0466H167.354ZM167.134 26.9657L167.574 28.1657L167.787 28.0876L167.347 26.8876L167.134 26.9657ZM167.572 28.0952C167.179 29.4556 166.383 30.5403 165.177 31.3525L165.304 31.5407C166.552 30.6996 167.382 29.571 167.79 28.1581L167.572 28.0952ZM165.177 31.3525C163.972 32.1651 162.554 32.5732 160.921 32.5732V32.8001C162.594 32.8001 164.057 32.3815 165.304 31.5407L165.177 31.3525ZM162.321 29.0001C163.327 29.0001 164.215 28.7551 164.982 28.2621L164.859 28.0712C164.133 28.5381 163.288 28.7732 162.321 28.7732V29.0001ZM164.982 28.2621C165.75 27.7681 166.337 27.0424 166.745 26.0913L166.537 26.0019C166.144 26.9175 165.584 27.6051 164.859 28.0712L164.982 28.2621ZM166.744 26.0927C167.179 25.1141 167.394 23.9106 167.394 22.4866H167.167C167.167 23.8893 166.956 25.0591 166.537 26.0005L166.744 26.0927ZM167.394 22.4866C167.394 20.3402 166.939 18.7214 166.006 17.6521L165.835 17.8012C166.716 18.8118 167.167 20.3664 167.167 22.4866H167.394ZM166.007 17.6531C165.077 16.5593 163.845 16.0132 162.321 16.0132V16.2401C163.783 16.2401 164.951 16.7607 165.834 17.8001L166.007 17.6531ZM162.321 16.0132C161.315 16.0132 160.426 16.2581 159.659 16.7512L159.782 16.9421C160.508 16.4751 161.353 16.2401 162.321 16.2401V16.0132ZM159.662 16.7496C158.892 17.2172 158.291 17.9438 157.857 18.9205L158.064 19.0127C158.484 18.0695 159.056 17.3827 159.78 16.9436L159.662 16.7496ZM157.857 18.9219C157.449 19.8738 157.247 21.0635 157.247 22.4866H157.474C157.474 21.083 157.673 19.9261 158.065 19.0113L157.857 18.9219ZM157.247 22.4866C157.247 24.6074 157.703 26.2375 158.633 27.359L158.808 27.2142C157.925 26.149 157.474 24.5792 157.474 22.4866H157.247ZM158.634 27.3601C159.564 28.454 160.797 29.0001 162.321 29.0001V28.7732C160.858 28.7732 159.691 28.2526 158.807 27.2131L158.634 27.3601ZM181.305 31.4466L181.253 31.5474L181.253 31.5474L181.305 31.4466ZM177.585 27.9266L177.486 27.9822L177.487 27.9835L177.585 27.9266ZM177.545 17.2066L177.446 17.1511L177.445 17.1524L177.545 17.2066ZM181.025 13.6466L181.082 13.7447L181.083 13.7444L181.025 13.6466ZM189.825 13.0066L189.782 13.1114L189.783 13.1118L189.825 13.0066ZM192.665 14.9666L192.581 15.0428L192.582 15.0442L192.665 14.9666ZM194.465 18.0866L194.357 18.1218L194.358 18.1246L194.465 18.0866ZM194.585 23.2866L194.653 23.3774L194.654 23.3765L194.585 23.2866ZM180.345 23.6466H180.232V23.7601H180.345V23.6466ZM180.345 20.7666V20.6532H180.232V20.7666H180.345ZM191.585 20.7666L191.663 20.8494L191.872 20.6532H191.585V20.7666ZM190.945 21.3666H190.832V21.6285L191.023 21.4494L190.945 21.3666ZM190.385 18.2866L190.28 18.3305L190.282 18.3333L190.385 18.2866ZM188.825 16.4066L188.761 16.5005L188.766 16.5032L188.825 16.4066ZM183.425 16.5266L183.487 16.6215L183.488 16.621L183.425 16.5266ZM181.625 18.7266L181.521 18.6805L181.521 18.6819L181.625 18.7266ZM182.545 27.2866L182.462 27.3638L182.464 27.3658L182.545 27.2866ZM189.425 28.6466L189.446 28.7582L189.449 28.7576L189.425 28.6466ZM191.905 27.7266L191.96 27.826L191.961 27.8251L191.905 27.7266ZM193.385 27.3266L193.371 27.4394L193.378 27.4399L193.385 27.3266ZM194.385 27.7666L194.301 27.8426L194.305 27.8468L194.385 27.7666ZM194.865 28.7666L194.753 28.7816L194.753 28.7827L194.865 28.7666ZM194.625 29.9266L194.525 29.8732L194.522 29.8786L194.625 29.9266ZM193.625 30.9666L193.566 30.8698L193.565 30.8706L193.625 30.9666ZM190.385 32.2866L190.41 32.3974L190.412 32.397L190.385 32.2866ZM187.025 32.5732C184.826 32.5732 182.938 32.1625 181.357 31.3458L181.253 31.5474C182.872 32.3841 184.798 32.8001 187.025 32.8001V32.5732ZM181.357 31.3458C179.776 30.5288 178.552 29.3705 177.683 27.8698L177.487 27.9835C178.378 29.5227 179.634 30.7111 181.253 31.5474L181.357 31.3458ZM177.684 27.8711C176.842 26.371 176.419 24.5909 176.419 22.5266H176.192C176.192 24.6223 176.622 26.4422 177.486 27.9822L177.684 27.8711ZM176.419 22.5266C176.419 20.5156 176.829 18.7615 177.645 17.2608L177.445 17.1524C176.608 18.6917 176.192 20.4843 176.192 22.5266H176.419ZM177.644 17.2622C178.488 15.7593 179.634 14.5875 181.082 13.7447L180.968 13.5486C179.483 14.4124 178.309 15.6139 177.446 17.1511L177.644 17.2622ZM181.083 13.7444C182.557 12.8756 184.23 12.4401 186.105 12.4401V12.2132C184.193 12.2132 182.48 12.6577 180.968 13.5489L181.083 13.7444ZM186.105 12.4401C187.479 12.4401 188.704 12.6647 189.782 13.1114L189.869 12.9018C188.759 12.4419 187.504 12.2132 186.105 12.2132V12.4401ZM189.783 13.1118C190.888 13.559 191.82 14.2028 192.581 15.0428L192.749 14.8904C191.964 14.0238 191.003 13.3609 189.868 12.9015L189.783 13.1118ZM192.582 15.0442C193.37 15.8842 193.962 16.9093 194.357 18.1218L194.573 18.0514C194.168 16.8106 193.56 15.7557 192.748 14.889L192.582 15.0442ZM194.358 18.1246C194.78 19.3103 194.992 20.6571 194.992 22.1666H195.219C195.219 20.6361 195.004 19.2629 194.572 18.0486L194.358 18.1246ZM194.992 22.1666C194.992 22.6153 194.832 22.9538 194.516 23.1967L194.654 23.3765C195.032 23.0861 195.219 22.6779 195.219 22.1666H194.992ZM194.517 23.1959C194.225 23.4151 193.786 23.5332 193.185 23.5332V23.7601C193.811 23.7601 194.306 23.6381 194.653 23.3774L194.517 23.1959ZM193.185 23.5332H180.345V23.7601H193.185V23.5332ZM180.459 23.6466V20.7666H180.232V23.6466H180.459ZM180.345 20.8801H191.585V20.6532H180.345V20.8801ZM191.508 20.6839L190.868 21.2839L191.023 21.4494L191.663 20.8494L191.508 20.6839ZM191.059 21.3666C191.059 20.1292 190.87 19.0855 190.489 18.2399L190.282 18.3333C190.647 19.1411 190.832 20.1507 190.832 21.3666H191.059ZM190.49 18.2427C190.135 17.3965 189.6 16.7504 188.885 16.31L188.766 16.5032C189.437 16.9162 189.942 17.5234 190.281 18.3305L190.49 18.2427ZM188.889 16.3128C188.199 15.8437 187.335 15.6132 186.305 15.6132V15.8401C187.302 15.8401 188.118 16.0628 188.761 16.5004L188.889 16.3128ZM186.305 15.6132C185.167 15.6132 184.184 15.8845 183.362 16.4322L183.488 16.621C184.267 16.1021 185.204 15.8401 186.305 15.8401V15.6132ZM183.363 16.4317C182.569 16.9519 181.956 17.7034 181.521 18.6805L181.729 18.7727C182.148 17.8298 182.735 17.1147 183.487 16.6215L183.363 16.4317ZM181.521 18.6819C181.113 19.6328 180.912 20.7688 180.912 22.0866H181.139C181.139 20.7911 181.337 19.6871 181.729 18.7713L181.521 18.6819ZM180.912 22.0866V22.3666H181.139V22.0866H180.912ZM180.912 22.3666C180.912 24.5687 181.422 26.2414 182.462 27.3637L182.628 27.2095C181.642 26.1451 181.139 24.5378 181.139 22.3666H180.912ZM182.464 27.3658C183.532 28.4611 185.085 29.0001 187.105 29.0001V28.7732C185.125 28.7732 183.638 28.2455 182.626 27.2074L182.464 27.3658ZM187.105 29.0001C187.807 29.0001 188.587 28.9191 189.446 28.7581L189.404 28.5351C188.556 28.6941 187.79 28.7732 187.105 28.7732V29.0001ZM189.449 28.7576C190.339 28.5687 191.177 28.2581 191.96 27.826L191.85 27.6273C191.087 28.0485 190.271 28.3513 189.402 28.5356L189.449 28.7576ZM191.961 27.8251C192.51 27.5115 192.978 27.3901 193.371 27.4392L193.399 27.214C192.939 27.1565 192.42 27.3017 191.849 27.6281L191.961 27.8251ZM193.378 27.4399C193.781 27.465 194.084 27.6021 194.301 27.8425L194.469 27.6907C194.206 27.3978 193.842 27.2415 193.392 27.2134L193.378 27.4399ZM194.305 27.8468C194.553 28.0946 194.702 28.4045 194.753 28.7816L194.978 28.7516C194.921 28.3288 194.751 27.972 194.465 27.6864L194.305 27.8468ZM194.753 28.7827C194.802 29.1276 194.729 29.4901 194.525 29.8732L194.725 29.98C194.948 29.5632 195.035 29.1523 194.977 28.7506L194.753 28.7827ZM194.522 29.8786C194.347 30.2535 194.032 30.5849 193.566 30.8698L193.684 31.0634C194.178 30.7616 194.53 30.3997 194.728 29.9746L194.522 29.8786ZM193.565 30.8706C192.643 31.4498 191.575 31.8854 190.359 32.1763L190.412 32.397C191.649 32.1012 192.74 31.6568 193.686 31.0627L193.565 30.8706ZM190.361 32.1759C189.167 32.4411 188.056 32.5732 187.025 32.5732V32.8001C188.075 32.8001 189.203 32.6655 190.41 32.3974L190.361 32.1759Z" fill="white" mask="url(#path-2-outside-2_1568_4952)"/>
<mask id="path-4-inside-3_1568_4952" fill="white">
<path d="M10.2406 23.29C9.03963 23.4261 7.92925 22.5671 8.00198 21.3606C8.06395 20.3327 8.26272 19.313 8.59592 18.3252C9.16369 16.6422 10.1087 15.0907 11.3682 13.7741C12.6276 12.4575 14.1726 11.4059 15.9002 10.6894C17.6279 9.97295 19.4986 9.60793 21.3878 9.61867C23.2771 9.62942 25.1416 10.0157 26.8572 10.7518C28.5729 11.4879 30.1003 12.5569 31.3379 13.8877C32.5755 15.2185 33.4948 16.7806 34.0348 18.47C34.3529 19.4655 34.535 20.4918 34.5791 21.5246C34.6304 22.727 33.5134 23.5661 32.3191 23.4169V23.4169C31.091 23.2635 30.2604 22.1156 30.0792 20.8912C30.0175 20.4748 29.9218 20.0623 29.7924 19.6574C29.4322 18.5301 28.8187 17.4878 27.9929 16.5999C27.1672 15.7119 26.148 14.9986 25.0032 14.5074C23.8584 14.0162 22.6143 13.7585 21.3537 13.7513C20.0931 13.7442 18.8449 13.9877 17.6921 14.4658C16.5393 14.9439 15.5084 15.6455 14.6681 16.5241C13.8277 17.4026 13.1971 18.4378 12.8182 19.5608C12.6811 19.9673 12.5781 20.3819 12.5096 20.8009C12.3104 22.019 11.467 23.151 10.2406 23.29V23.29Z"/>
</mask>
<path d="M10.2406 23.29C9.03963 23.4261 7.92925 22.5671 8.00198 21.3606C8.06395 20.3327 8.26272 19.313 8.59592 18.3252C9.16369 16.6422 10.1087 15.0907 11.3682 13.7741C12.6276 12.4575 14.1726 11.4059 15.9002 10.6894C17.6279 9.97295 19.4986 9.60793 21.3878 9.61867C23.2771 9.62942 25.1416 10.0157 26.8572 10.7518C28.5729 11.4879 30.1003 12.5569 31.3379 13.8877C32.5755 15.2185 33.4948 16.7806 34.0348 18.47C34.3529 19.4655 34.535 20.4918 34.5791 21.5246C34.6304 22.727 33.5134 23.5661 32.3191 23.4169V23.4169C31.091 23.2635 30.2604 22.1156 30.0792 20.8912C30.0175 20.4748 29.9218 20.0623 29.7924 19.6574C29.4322 18.5301 28.8187 17.4878 27.9929 16.5999C27.1672 15.7119 26.148 14.9986 25.0032 14.5074C23.8584 14.0162 22.6143 13.7585 21.3537 13.7513C20.0931 13.7442 18.8449 13.9877 17.6921 14.4658C16.5393 14.9439 15.5084 15.6455 14.6681 16.5241C13.8277 17.4026 13.1971 18.4378 12.8182 19.5608C12.6811 19.9673 12.5781 20.3819 12.5096 20.8009C12.3104 22.019 11.467 23.151 10.2406 23.29V23.29Z" fill="white" stroke="white" stroke-width="0.167865" mask="url(#path-4-inside-3_1568_4952)"/>
<path d="M34.6686 26.4086C34.6086 27.3412 34.4356 28.2676 34.1511 29.1697C33.6186 30.8576 32.7076 32.4222 31.4785 33.759C30.2494 35.0959 28.7304 36.1744 27.0224 36.9227C25.3145 37.6709 23.4569 38.0717 21.5733 38.0982C19.6897 38.1248 17.8235 37.7765 16.0989 37.0766C14.3743 36.3768 12.831 35.3414 11.5715 34.0397C10.312 32.7379 9.36526 31.1996 8.79407 29.5273C8.48725 28.6289 8.29257 27.703 8.21188 26.7676C8.09813 25.4491 9.3114 24.4919 10.6403 24.6313C12.0017 24.7741 12.9478 26.0369 13.2575 27.3872C13.3142 27.6349 13.384 27.8802 13.4667 28.1223C13.8271 29.1775 14.4244 30.1477 15.2185 30.9685C16.0126 31.7893 16.9854 32.4418 18.0721 32.8828C19.1587 33.3237 20.3344 33.5431 21.5208 33.5264C22.7073 33.5097 23.8775 33.2572 24.9536 32.7858C26.0297 32.3143 26.9871 31.6346 27.762 30.7918C28.5369 29.9489 29.1116 28.9622 29.4475 27.8973C29.5258 27.6492 29.5907 27.3983 29.6421 27.1454C29.9174 25.7915 30.8275 24.5096 32.1805 24.3292C33.5106 24.1517 34.7538 25.0824 34.6686 26.4086Z" fill="white" stroke="white" stroke-width="0.0839323"/>
<path d="M34.6798 26.3867C35.1552 34.1491 34.8587 51.0403 34.7927 51.9061C34.7089 53.0047 34.5245 54.1807 34.2475 55.9271C33.9717 57.6667 33.3024 59.3333 32.284 60.816C31.2656 62.2987 29.9214 63.5634 28.3407 64.5259C26.7601 65.4884 24.9793 66.1265 23.117 66.3976C21.2546 66.6687 19.3534 66.5667 17.5401 66.0982C15.7268 65.6297 14.043 64.8056 12.6007 63.681C11.8552 63.0996 11.1831 62.4449 10.5951 61.7296C9.72114 60.6665 10.252 59.137 11.5178 58.564C12.6909 58.0329 14.0608 58.5491 14.9761 59.4751C15.2191 59.7211 15.4795 59.9526 15.7559 60.1681C16.665 60.877 17.7261 61.3963 18.8685 61.6914C20.0108 61.9865 21.2084 62.0508 22.3816 61.88C23.5547 61.7092 24.6766 61.3072 25.6727 60.7007C26.6688 60.0942 27.5162 59.297 28.1584 58.3619C28.8007 57.4269 29.223 56.3756 29.3971 55.2778C29.4842 54.728 29.5514 54.2542 29.6257 53.7295C29.6987 53.2141 29.7786 52.6496 29.8914 51.9157C29.9373 51.617 29.9949 50.5222 30.0519 48.9583C30.109 47.3927 30.1656 45.3534 30.2089 43.1628C30.2956 38.7817 30.3296 33.7938 30.2093 30.7776C30.1458 29.1857 30.617 27.1431 31.5999 25.897L31.7926 25.6526C32.4145 24.8642 33.109 24.5634 33.6544 24.6934C34.1969 24.8227 34.6185 25.3858 34.6798 26.3867Z" fill="white" stroke="white" stroke-width="0.0839323"/>
<circle cx="21.2174" cy="26.1041" r="3.87569" fill="white" stroke="white" stroke-width="0.066161"/>
<path d="M33.3679 16.9125C33.3915 17.5555 33.3283 17.9671 33.1936 18.2009C33.127 18.3166 33.0436 18.3876 32.9449 18.423C32.8456 18.4586 32.7271 18.4593 32.5886 18.4273C32.3105 18.363 31.9624 18.1695 31.5513 17.8881C31.1424 17.6081 30.6749 17.2439 30.157 16.8404L30.1521 16.8366C29.1133 16.0272 27.8739 15.0622 26.5092 14.3138C25.1444 13.5655 23.6515 13.0322 22.1049 13.089C20.5584 13.1458 19.1086 13.7871 17.8024 14.6336C16.4962 15.4801 15.331 16.5334 14.3544 17.4168L14.3497 17.421C13.8628 17.8614 13.4234 18.2589 13.0361 18.5681C12.6467 18.8789 12.3137 19.0975 12.0411 19.182C11.9054 19.224 11.7871 19.232 11.6854 19.2038C11.5844 19.1758 11.496 19.111 11.4211 19.0006C11.2697 18.7772 11.1764 18.3714 11.1528 17.7284C10.9646 12.6033 15.7789 8.25663 21.9192 8.03111C28.0595 7.80558 33.1797 11.7874 33.3679 16.9125Z" stroke="white" stroke-width="0.066161"/>
<path d="M2 12.4531L6.80273 13.8657" stroke="white" stroke-width="2.3501" stroke-linecap="round"/>
<path d="M10.334 4.26025L13.3004 7.3679" stroke="white" stroke-width="2.3501" stroke-linecap="round"/>
<path d="M21.4941 2V5.39016" stroke="white" stroke-width="2.3501" stroke-linecap="round"/>
<path d="M30.3926 8.35679L33.2177 6.09668" stroke="white" stroke-width="2.3501" stroke-linecap="round"/>
<path d="M36.043 14.4306C37.0768 14.0005 38.2196 13.6387 39.1506 13.0181" stroke="white" stroke-width="2.3501" stroke-linecap="round"/>
</svg>
